<svg width="16" height="16" viewBox="0 0 16 16" fill="none" xmlns="http://www.w3.org/2000/svg">
<path d="M9.33333 8.00002L7 9.33335V6.66669L9.33333 8.00002Z" fill="white" stroke="white" stroke-linecap="round" stroke-linejoin="round"/>
<path d="M1.3335 8.472V7.528C1.3335 5.598 1.3335 4.63266 1.93683 4.012C2.54083 3.39066 3.4915 3.364 5.39216 3.31C6.29216 3.28466 7.21216 3.26666 8.00016 3.26666C8.78816 3.26666 9.7075 3.28466 10.6082 3.31C12.5088 3.364 13.4595 3.39066 14.0628 4.012C14.6662 4.63333 14.6668 5.59866 14.6668 7.528V8.47133C14.6668 10.402 14.6668 11.3667 14.0635 11.988C13.4595 12.6087 12.5095 12.636 10.6082 12.6893C9.70816 12.7153 8.78816 12.7333 8.00016 12.7333C7.21216 12.7333 6.29283 12.7153 5.39216 12.6893C3.4915 12.636 2.54083 12.6093 1.93683 11.988C1.33283 11.3667 1.3335 10.4013 1.3335 8.472Z" stroke="white"/>
</svg>
